<svg width="99" height="94" viewBox="0 0 99 94" fill="none" xmlns="http://www.w3.org/2000/svg">
<g id="Group">
<path id="Vector" d="M11.5605 44.9303C11.8252 44.7221 11.5029 44.3122 11.2382 44.5204C10.9735 44.7286 11.2958 45.1384 11.5605 44.9303Z" fill="#CDC7F3"/>
<path id="Vector_2" d="M11.6532 64.9233C14.303 69.1274 17.882 72.8702 21.0267 76.7196C23.2367 79.4246 26.4129 84.9836 30.5914 82.2573C32.2862 81.1526 33.2295 79.022 34.3053 77.3675C35.6373 75.3181 36.9692 73.2688 38.3011 71.2194C39.6331 69.1701 40.954 67.1155 42.2683 65.0525C43.5353 63.0611 45.0037 61.4226 44.4646 58.9445C44.15 57.499 42.8063 56.0889 41.1695 56.4502C37.5252 57.2638 35.9666 61.2742 34.0944 64.2182C31.9403 67.612 29.8115 71.0204 27.6726 74.4161C27.4955 74.7005 26.1597 76.2968 26.2782 76.632C29.0126 76.8932 29.8194 76.5835 28.7019 75.7072C28.3173 75.3325 27.9319 74.9654 27.5473 74.5906C26.1362 73.2267 24.7283 71.867 23.3172 70.5031C20.4014 67.6828 17.5984 64.5666 14.3512 62.1244C12.4806 60.721 10.5375 63.1266 11.6593 64.9047L11.6532 64.9233Z" fill="#CDC7F3"/>
<path id="Vector_3" d="M29.3925 76.4976C25.1136 65.9601 26.9166 54.0187 30.511 43.5292C32.9585 36.3876 39.5648 18.824 50.082 23.6749C52.9889 25.0165 59.8758 31.2436 55.4913 34.5602C53.6201 35.9765 51.8092 33.7177 50.8428 32.2251C49.4383 30.0613 48.8651 27.3819 49.1325 24.8223C49.6472 19.871 53.6976 15.822 58.5883 15.0646C63.5495 14.3002 68.3761 17.1517 71.901 20.3774C80.2125 27.9854 82.4515 39.215 80.3459 49.9019C79.6391 53.4842 85.5167 55.0186 86.5897 51.48C90.5536 38.3852 85.1567 23.1576 74.6453 14.6676C69.3126 10.3554 62.2801 7.73915 55.4903 9.78959C48.8171 11.8037 43.6849 17.9125 43.3056 24.934C42.9796 30.96 46.201 39.6342 52.9233 40.8983C60.0571 42.2464 64.2169 34.242 62.1735 28.2344C60.0821 22.0779 53.0218 17.0099 46.5122 17.2024C39.3153 17.4171 34.2999 23.5516 31.1652 29.3887C27.0705 37.0103 24.4503 45.6281 23.3972 54.209C22.4125 62.2179 22.6569 70.8495 27.1165 77.8383C27.9437 79.1363 29.9462 77.8518 29.3968 76.4942L29.3925 76.4976Z" fill="#CDC7F3"/>
</g>
</svg>
